<svg xmlns="http://www.w3.org/2000/svg" viewBox="0 0 1128 1128" width="1128" height="1128"><g transform="translate(-62.8 -63.6)"><path fill="#EDE4D6" d="M623.0,1096.9   C611.0,1097.9 599.0,1100.1 587.1,1099.7   C567.6,1099.1 548.2,1097.6 528.8,1094.3   C503.9,1090.0 479.5,1084.4 455.9,1075.9   C440.3,1070.3 425.2,1063.6 410.1,1057.0   C389.4,1047.9 369.9,1036.4 351.6,1023.1   C338.8,1013.8 326.4,1003.7 314.2,993.5   C305.3,986.1 296.7,978.3 288.7,970.0   C265.2,945.6 244.1,919.2 226.9,889.9   C212.3,865.0 200.5,839.1 193.6,811.1   C189.9,796.2 187.9,780.9 189.1,765.5   C191.2,740.3 197.4,716.1 207.9,692.9   C219.1,667.9 233.1,644.8 249.6,623.1   C265.3,602.4 283.0,583.2 302.1,565.6   C327.4,542.1 355.0,521.6 384.8,504.1   C414.5,486.7 445.9,472.7 478.9,462.6   C499.0,456.5 519.5,452.0 540.4,448.8   C565.2,445.0 590.1,444.8 615.1,445.1   C619.2,445.1 623.2,445.9 627.6,447.1   C625.6,447.8 623.6,448.4 621.6,449.1   C599.8,456.7 579.4,467.0 560.1,479.4   C541.1,491.7 523.8,505.9 507.2,521.2   C483.0,543.3 462.2,568.3 444.8,595.9   C424.9,627.5 409.7,661.2 401.3,697.8   C398.7,709.2 397.2,721.0 396.2,732.7   C395.1,744.7 394.4,756.9 395.2,768.9   C396.6,788.2 399.3,807.3 405.9,825.6   C411.8,841.7 417.9,857.7 424.9,873.3   C433.6,892.5 445.2,910.0 458.7,926.1   C468.9,938.1 479.2,950.0 490.6,960.8   C511.1,980.2 533.8,997.0 558.6,1010.7   C574.9,1019.8 591.5,1028.3 608.3,1036.6   C620.6,1042.7 633.3,1048.1 645.7,1054.0   C649.1,1055.6 652.4,1057.5 655.3,1059.9   C664.4,1067.7 663.7,1076.7 654.5,1083.7   C650.3,1086.9 645.1,1088.8 639.7,1091.6   C633.8,1093.6 628.4,1095.2 623.0,1096.9  z"/><path fill="#EDE4D6" d="M331.7,273.7   C325.8,276.8 320.2,279.8 314.6,282.7   C314.4,282.5 314.1,282.2 313.8,282.0   C315.5,279.5 317.0,276.8 319.0,274.6   C332.5,259.2 347.4,245.2 363.6,232.6   C384.3,216.5 406.7,203.4 430.4,192.4   C450.8,182.9 472.1,175.3 494.0,170.0   C507.3,166.9 520.6,163.5 534.1,161.2   C546.9,159.1 559.8,158.0 572.8,157.1   C586.9,156.0 601.2,154.8 615.3,155.2   C632.4,155.6 649.5,157.3 666.5,159.0   C698.2,162.2 728.7,170.3 758.7,180.9   C789.4,191.8 818.7,205.4 845.8,223.5   C864.4,236.0 882.3,249.4 900.2,262.9   C907.7,268.6 914.4,275.3 921.2,281.8   C931.6,291.6 942.2,301.2 952.0,311.6   C968.3,329.0 984.2,346.6 999.9,364.5   C1013.2,379.5 1025.9,395.1 1038.9,410.4   C1044.5,417.0 1044.7,417.1 1038.4,423.1   C1023.6,437.0 1009.0,451.3 993.7,464.7   C973.7,482.1 953.2,499.1 930.9,513.6   C915.9,523.4 900.3,532.4 882.3,534.5   C871.9,535.8 861.0,535.3 850.6,533.8   C838.4,532.0 826.3,529.0 814.6,525.0   C796.7,519.0 780.4,509.6 765.7,497.3   C747.2,481.8 732.5,463.2 721.0,442.1   C713.0,427.2 705.4,412.1 697.0,397.4   C684.2,375.2 671.3,353.0 657.4,331.4   C650.9,321.3 642.5,312.1 633.9,303.6   C603.6,273.9 567.7,254.1 526.1,245.2   C513.7,242.5 500.9,241.4 488.2,240.1   C480.0,239.3 471.6,238.7 463.4,239.1   C439.8,240.3 416.5,243.5 393.7,249.9   C372.4,255.9 351.9,263.9 331.7,273.7  z"/><path fill="#EDE4D6" d="M 699.0,448.5 C 693.2,445.7 687.3,443.1 681.6,440.2 C 661.4,429.8 640.4,421.8 618.1,417.8 C 603.7,415.2 589.1,414.4 574.6,412.6 C 557.7,410.4 541.1,412.8 524.3,414.5 C 496.6,417.3 469.9,424.6 443.8,433.7 C 419.9,442.1 397.2,453.1 374.9,465.0 C 349.7,478.5 326.1,494.2 303.3,511.3 C 280.3,528.4 259.5,548.0 239.9,568.7 C 222.6,587.1 206.5,606.6 193.5,628.2 C 183.2,645.5 174.1,663.7 164.5,681.4 C 163.8,682.7 163.0,684.0 162.0,685.9 C 161.1,684.6 160.2,683.9 160.0,683.0 C 157.2,667.7 154.1,652.5 152.0,637.2 C 150.3,625.4 149.2,613.4 149.0,601.5 C 148.8,591.6 150.2,581.6 150.8,571.6 C 151.8,554.2 155.4,537.3 159.8,520.6 C 166.8,494.2 177.3,469.4 190.9,445.8 C 200.9,428.3 212.1,411.7 225.3,396.6 C 248.0,370.3 274.1,347.8 304.6,330.4 C 327.7,317.2 352.1,306.9 378.3,301.3 C 390.8,298.6 403.5,297.0 416.1,295.7 C 426.8,294.7 437.5,294.7 448.2,294.6 C 470.5,294.5 492.2,298.3 513.6,304.0 C 531.8,308.8 549.2,315.7 565.9,324.3 C 585.4,334.4 603.9,346.1 620.3,360.5 C 632.5,371.1 645.0,381.5 655.6,393.5 C 670.9,410.8 684.7,429.5 699.1,448.0 C 699.1,448.4 699.0,448.5 699.0,448.5 z"/><path fill="#B5786C" d="M640.0,1094.2   C651.8,1091.5 662.9,1087.1 671.6,1078.7   C682.6,1068.0 682.3,1058.9 674.4,1047.9   C665.0,1034.9 651.1,1027.3 638.1,1018.6   C615.2,1003.1 591.7,988.5 569.8,971.8   C553.3,959.1 538.4,944.2 524.0,929.1   C505.5,909.8 490.2,887.9 477.2,864.5   C463.6,840.0 452.9,814.5 446.5,787.2   C441.0,764.1 439.6,740.6 441.3,717.2   C443.3,689.5 450.8,663.0 462.1,637.5   C473.0,612.7 486.6,589.5 504.0,569.0   C517.0,553.7 531.6,539.5 546.7,526.2   C559.2,515.2 573.6,506.3 587.2,496.5   C588.4,495.5 590.0,495.1 591.9,495.1   C587.5,500.3 583.1,505.5 578.8,510.7   C564.0,528.7 552.5,548.6 544.0,570.2   C537.5,586.8 532.6,603.8 530.2,621.4   C528.0,638.0 527.3,654.6 528.8,671.4   C530.6,691.4 534.6,710.7 541.1,729.6   C550.6,757.4 565.3,782.5 583.2,805.7   C597.2,823.9 613.1,840.4 629.7,856.1   C645.9,871.3 662.5,886.0 679.2,900.6   C698.4,917.3 715.2,936.1 728.3,957.9   C740.2,977.7 747.4,999.0 744.8,1022.4   C743.3,1036.2 737.6,1048.6 728.3,1059.2   C709.7,1080.2 684.9,1089.4 658.5,1094.8   C647.1,1097.1 635.3,1097.5 623.8,1098.5   C629.3,1096.9 634.7,1095.5 640.0,1094.2  z"/><path fill="#9B8E7E" d="M 563.5 638.9 C 576.4 664.2 593.1 686.1 612.9 704.7 C 634.4 725.0 658.6 740.9 685.6 750.1 C 713.4 759.6 741.5 767.7 769.5 776.3 C 792.8 783.5 816.1 790.8 837.6 803.3 C 854.8 813.3 871.0 825.2 884.6 840.8 C 899.2 857.5 909.7 877.0 913.4 900.3 C 917.0 922.9 913.2 944.6 902.2 963.7 C 894.6 976.9 885.8 989.7 875.7 1000.6 C 860.5 1016.8 843.2 1030.4 824.5 1041.5 C 804.5 1053.5 783.8 1063.5 762.1 1070.7 C 754.5 1073.2 746.8 1075.2 739.2 1077.5 C 739.0 1077.0 738.9 1076.6 738.7 1076.1 C 741.1 1073.8 743.5 1071.4 746.0 1069.2 C 763.4 1053.9 776.1 1034.5 783.1 1011.0 C 791.4 983.4 789.6 956.3 777.5 930.2 C 770.3 914.6 761.1 901.0 750.2 888.5 C 734.1 869.9 715.6 854.9 696.8 840.0 C 679.2 826.0 661.5 812.0 644.5 797.0 C 621.2 776.6 602.6 751.6 587.6 722.8 C 575.3 699.3 567.8 674.0 563.1 647.4 C 562.7 645.1 563.0 642.7 563.1 639.8 C 563.2 639.2 563.5 638.9 563.5 638.9 z"/><path fill="#EDE4D6" d="M 1015.8 876.2 C 1006.2 886.4 997.1 896.6 987.5 906.3 C 977.9 916.0 967.9 925.3 958.4 934.5 C 958.4 925.3 958.5 916.3 958.3 907.3 C 957.9 890.5 953.5 874.6 947.1 859.2 C 937.9 837.1 924.1 818.5 906.3 803.3 C 896.2 794.7 885.4 786.7 873.8 780.5 C 859.4 772.7 844.2 766.2 828.8 760.6 C 811.8 754.5 794.1 750.8 776.1 749.3 C 762.5 748.2 749.0 746.7 734.7 745.3 C 744.4 740.2 753.6 734.7 763.4 730.5 C 778.7 723.9 794.2 717.3 810.2 712.5 C 828.8 706.9 847.8 702.5 866.8 699.0 C 882.2 696.1 897.9 694.9 913.5 693.6 C 925.6 692.7 937.8 692.0 949.8 692.7 C 967.1 693.6 984.5 695.4 1001.7 697.8 C 1018.9 700.3 1036.2 703.3 1053.1 707.4 C 1070.3 711.6 1087.0 717.5 1104.6 722.8 C 1086.0 781.3 1054.3 830.6 1015.8 876.2 z"/></g></svg>